<svg width="772" height="602" viewBox="0 0 772 602" fill="none" xmlns="http://www.w3.org/2000/svg">
<path d="M99.3539 94H341.057H752C763.046 94 772 102.954 772 114V582C772 593.046 763.046 602 752 602H99.3539C88.3082 602 79.3539 593.046 79.3539 582V114C79.3539 102.954 88.3082 94 99.3539 94Z" fill="#171B24"/>
<path d="M112 104C112 98.4772 116.477 94 122 94H730C735.523 94 740 98.4772 740 104V152C740 157.523 735.523 162 730 162H122C116.477 162 112 157.523 112 152V104Z" fill="#181D27" fill-opacity="0.9"/>
<rect x="112" y="470" width="628" height="83" rx="10" fill="#1F2937"/>
<path d="M199.18 245.078L201.477 232.938H204.98L201.195 250H197.656L194.879 238.586L192.102 250H188.562L184.777 232.938H188.281L190.59 245.055L193.402 232.938H196.379L199.18 245.078ZM214.027 248.711C213.191 249.727 212.035 250.234 210.559 250.234C209.199 250.234 208.16 249.844 207.441 249.062C206.73 248.281 206.367 247.137 206.352 245.629V237.32H209.738V245.512C209.738 246.832 210.34 247.492 211.543 247.492C212.691 247.492 213.48 247.094 213.91 246.297V237.32H217.309V250H214.121L214.027 248.711ZM224.691 241.105L226.824 237.32H230.445L226.836 243.531L230.598 250H226.965L224.703 246.016L222.453 250H218.809L222.57 243.531L218.973 237.32H222.605L224.691 241.105ZM236.902 241.105L239.035 237.32H242.656L239.047 243.531L242.809 250H239.176L236.914 246.016L234.664 250H231.02L234.781 243.531L231.184 237.32H234.816L236.902 241.105ZM249.02 245.207L251.363 237.32H254.996L249.898 251.969L249.617 252.637C248.859 254.293 247.609 255.121 245.867 255.121C245.375 255.121 244.875 255.047 244.367 254.898V252.332L244.883 252.344C245.523 252.344 246 252.246 246.312 252.051C246.633 251.855 246.883 251.531 247.062 251.078L247.461 250.035L243.02 237.32H246.664L249.02 245.207Z" fill="#F3F3F3"/>
<path d="M613.459 197.708H610.41V206H608.359V197.708H605.352V196.047H613.459V197.708ZM612.775 202.233C612.775 201.5 612.917 200.846 613.199 200.271C613.482 199.697 613.887 199.253 614.416 198.938C614.949 198.624 615.567 198.467 616.269 198.467C617.267 198.467 618.08 198.772 618.709 199.383C619.342 199.993 619.696 200.823 619.769 201.871L619.782 202.377C619.782 203.512 619.465 204.423 618.832 205.111C618.199 205.795 617.349 206.137 616.282 206.137C615.216 206.137 614.364 205.795 613.726 205.111C613.092 204.428 612.775 203.498 612.775 202.322V202.233ZM614.751 202.377C614.751 203.079 614.883 203.617 615.147 203.99C615.412 204.359 615.79 204.544 616.282 204.544C616.761 204.544 617.134 204.362 617.403 203.997C617.672 203.628 617.807 203.04 617.807 202.233C617.807 201.545 617.672 201.012 617.403 200.634C617.134 200.256 616.756 200.066 616.269 200.066C615.785 200.066 615.412 200.256 615.147 200.634C614.883 201.007 614.751 201.589 614.751 202.377ZM620.691 202.247C620.691 201.094 620.949 200.176 621.464 199.492C621.983 198.809 622.692 198.467 623.59 198.467C624.31 198.467 624.905 198.736 625.374 199.273V195.5H627.356V206H625.572L625.477 205.214C624.984 205.829 624.351 206.137 623.576 206.137C622.706 206.137 622.006 205.795 621.478 205.111C620.953 204.423 620.691 203.468 620.691 202.247ZM622.667 202.391C622.667 203.083 622.788 203.614 623.029 203.983C623.271 204.353 623.622 204.537 624.082 204.537C624.693 204.537 625.123 204.28 625.374 203.765V200.846C625.128 200.331 624.702 200.073 624.096 200.073C623.143 200.073 622.667 200.846 622.667 202.391ZM633.174 206C633.083 205.822 633.017 205.601 632.976 205.337C632.497 205.87 631.875 206.137 631.109 206.137C630.385 206.137 629.783 205.927 629.305 205.508C628.831 205.089 628.594 204.56 628.594 203.922C628.594 203.138 628.883 202.536 629.462 202.117C630.045 201.698 630.886 201.486 631.984 201.481H632.894V201.058C632.894 200.716 632.805 200.442 632.627 200.237C632.454 200.032 632.178 199.93 631.8 199.93C631.467 199.93 631.205 200.009 631.014 200.169C630.827 200.328 630.733 200.547 630.733 200.825H628.758C628.758 200.397 628.89 200 629.154 199.636C629.419 199.271 629.792 198.986 630.275 198.781C630.758 198.572 631.301 198.467 631.902 198.467C632.814 198.467 633.536 198.697 634.069 199.157C634.607 199.613 634.876 200.256 634.876 201.085V204.291C634.881 204.993 634.979 205.524 635.17 205.884V206H633.174ZM631.54 204.626C631.832 204.626 632.101 204.562 632.347 204.435C632.593 204.302 632.775 204.127 632.894 203.908V202.637H632.155C631.166 202.637 630.64 202.979 630.576 203.662L630.569 203.778C630.569 204.024 630.656 204.227 630.829 204.387C631.002 204.546 631.239 204.626 631.54 204.626ZM639.046 203.204L640.413 198.604H642.532L639.559 207.148L639.395 207.538C638.952 208.504 638.223 208.987 637.207 208.987C636.92 208.987 636.628 208.944 636.332 208.857V207.36L636.633 207.367C637.007 207.367 637.285 207.31 637.467 207.196C637.654 207.082 637.799 206.893 637.904 206.629L638.137 206.021L635.546 198.604H637.672L639.046 203.204ZM651.084 206C650.993 205.822 650.927 205.601 650.886 205.337C650.407 205.87 649.785 206.137 649.02 206.137C648.295 206.137 647.693 205.927 647.215 205.508C646.741 205.089 646.504 204.56 646.504 203.922C646.504 203.138 646.793 202.536 647.372 202.117C647.955 201.698 648.796 201.486 649.895 201.481H650.804V201.058C650.804 200.716 650.715 200.442 650.537 200.237C650.364 200.032 650.088 199.93 649.71 199.93C649.377 199.93 649.115 200.009 648.924 200.169C648.737 200.328 648.644 200.547 648.644 200.825H646.668C646.668 200.397 646.8 200 647.064 199.636C647.329 199.271 647.702 198.986 648.186 198.781C648.669 198.572 649.211 198.467 649.812 198.467C650.724 198.467 651.446 198.697 651.979 199.157C652.517 199.613 652.786 200.256 652.786 201.085V204.291C652.791 204.993 652.889 205.524 653.08 205.884V206H651.084ZM649.45 204.626C649.742 204.626 650.011 204.562 650.257 204.435C650.503 204.302 650.685 204.127 650.804 203.908V202.637H650.065C649.076 202.637 648.55 202.979 648.486 203.662L648.479 203.778C648.479 204.024 648.566 204.227 648.739 204.387C648.912 204.546 649.149 204.626 649.45 204.626ZM656.669 196.785V198.604H657.934V200.053H656.669V203.744C656.669 204.018 656.721 204.214 656.826 204.332C656.931 204.451 657.132 204.51 657.428 204.51C657.646 204.51 657.84 204.494 658.009 204.462V205.959C657.621 206.077 657.223 206.137 656.812 206.137C655.427 206.137 654.721 205.437 654.693 204.038V200.053H653.613V198.604H654.693V196.785H656.669ZM667.237 206H665.262V198.385L662.903 199.116V197.51L667.025 196.033H667.237V206ZM670.655 205.029C670.655 204.715 670.76 204.46 670.97 204.264C671.184 204.068 671.451 203.97 671.77 203.97C672.093 203.97 672.36 204.068 672.569 204.264C672.784 204.46 672.891 204.715 672.891 205.029C672.891 205.339 672.786 205.592 672.576 205.788C672.367 205.979 672.098 206.075 671.77 206.075C671.446 206.075 671.179 205.979 670.97 205.788C670.76 205.592 670.655 205.339 670.655 205.029ZM670.655 199.431C670.655 199.116 670.76 198.861 670.97 198.665C671.184 198.469 671.451 198.371 671.77 198.371C672.093 198.371 672.36 198.469 672.569 198.665C672.784 198.861 672.891 199.116 672.891 199.431C672.891 199.741 672.786 199.993 672.576 200.189C672.367 200.381 672.098 200.477 671.77 200.477C671.446 200.477 671.179 200.381 670.97 200.189C670.76 199.993 670.655 199.741 670.655 199.431ZM679.228 206H677.252V198.385L674.894 199.116V197.51L679.016 196.033H679.228V206ZM688.955 198.692C688.955 199.175 688.834 199.604 688.593 199.978C688.351 200.351 688.019 200.65 687.595 200.873C688.078 201.105 688.461 201.427 688.743 201.837C689.026 202.243 689.167 202.721 689.167 203.272C689.167 204.157 688.866 204.856 688.265 205.371C687.663 205.882 686.845 206.137 685.811 206.137C684.776 206.137 683.956 205.879 683.35 205.364C682.743 204.849 682.44 204.152 682.44 203.272C682.44 202.721 682.582 202.24 682.864 201.83C683.147 201.42 683.527 201.101 684.006 200.873C683.582 200.65 683.249 200.351 683.008 199.978C682.771 199.604 682.652 199.175 682.652 198.692C682.652 197.845 682.935 197.17 683.5 196.669C684.065 196.163 684.833 195.91 685.804 195.91C686.77 195.91 687.535 196.161 688.101 196.662C688.67 197.159 688.955 197.836 688.955 198.692ZM687.185 203.129C687.185 202.696 687.059 202.35 686.809 202.09C686.558 201.83 686.221 201.7 685.797 201.7C685.378 201.7 685.043 201.83 684.792 202.09C684.541 202.345 684.416 202.691 684.416 203.129C684.416 203.553 684.539 203.895 684.785 204.154C685.031 204.414 685.373 204.544 685.811 204.544C686.239 204.544 686.574 204.419 686.815 204.168C687.062 203.917 687.185 203.571 687.185 203.129ZM686.979 198.788C686.979 198.401 686.877 198.091 686.672 197.858C686.467 197.621 686.177 197.503 685.804 197.503C685.435 197.503 685.147 197.617 684.942 197.845C684.737 198.073 684.635 198.387 684.635 198.788C684.635 199.185 684.737 199.504 684.942 199.745C685.147 199.987 685.437 200.107 685.811 200.107C686.184 200.107 686.471 199.987 686.672 199.745C686.877 199.504 686.979 199.185 686.979 198.788ZM696.256 202.493V206H694.205V196.047H698.088C698.835 196.047 699.492 196.184 700.057 196.457C700.626 196.73 701.064 197.12 701.369 197.626C701.674 198.127 701.827 198.699 701.827 199.342C701.827 200.317 701.492 201.087 700.822 201.652C700.157 202.213 699.234 202.493 698.054 202.493H696.256ZM696.256 200.832H698.088C698.63 200.832 699.043 200.704 699.325 200.449C699.612 200.194 699.756 199.829 699.756 199.355C699.756 198.868 699.612 198.474 699.325 198.173C699.038 197.872 698.642 197.717 698.136 197.708H696.256V200.832ZM705.922 196.047L708.479 203.266L711.021 196.047H713.715V206H711.657V203.279L711.862 198.583L709.176 206H707.768L705.088 198.59L705.293 203.279V206H703.242V196.047H705.922Z" fill="#303A49"/>
<rect x="112" y="214" width="628" height="107" rx="10" fill="#515A7A" fill-opacity="0.03"/>
<path d="M199.285 383.316C199.152 385.152 198.473 386.598 197.246 387.652C196.027 388.707 194.418 389.234 192.418 389.234C190.23 389.234 188.508 388.5 187.25 387.031C186 385.555 185.375 383.531 185.375 380.961V379.918C185.375 378.277 185.664 376.832 186.242 375.582C186.82 374.332 187.645 373.375 188.715 372.711C189.793 372.039 191.043 371.703 192.465 371.703C194.434 371.703 196.02 372.23 197.223 373.285C198.426 374.34 199.121 375.82 199.309 377.727H195.793C195.707 376.625 195.398 375.828 194.867 375.336C194.344 374.836 193.543 374.586 192.465 374.586C191.293 374.586 190.414 375.008 189.828 375.852C189.25 376.688 188.953 377.988 188.938 379.754V381.043C188.938 382.887 189.215 384.234 189.77 385.086C190.332 385.938 191.215 386.363 192.418 386.363C193.504 386.363 194.312 386.117 194.844 385.625C195.383 385.125 195.691 384.355 195.77 383.316H199.285ZM206.199 380.105L208.332 376.32H211.953L208.344 382.531L212.105 389H208.473L206.211 385.016L203.961 389H200.316L204.078 382.531L200.48 376.32H204.113L206.199 380.105ZM217.156 389H213.758V371H217.156V389ZM224.703 384.863L227.059 376.32H230.598L226.32 389H223.086L218.809 376.32H222.348L224.703 384.863ZM239.258 389C239.102 388.695 238.988 388.316 238.918 387.863C238.098 388.777 237.031 389.234 235.719 389.234C234.477 389.234 233.445 388.875 232.625 388.156C231.812 387.438 231.406 386.531 231.406 385.438C231.406 384.094 231.902 383.062 232.895 382.344C233.895 381.625 235.336 381.262 237.219 381.254H238.777V380.527C238.777 379.941 238.625 379.473 238.32 379.121C238.023 378.77 237.551 378.594 236.902 378.594C236.332 378.594 235.883 378.73 235.555 379.004C235.234 379.277 235.074 379.652 235.074 380.129H231.688C231.688 379.395 231.914 378.715 232.367 378.09C232.82 377.465 233.461 376.977 234.289 376.625C235.117 376.266 236.047 376.086 237.078 376.086C238.641 376.086 239.879 376.48 240.793 377.27C241.715 378.051 242.176 379.152 242.176 380.574V386.07C242.184 387.273 242.352 388.184 242.68 388.801V389H239.258ZM236.457 386.645C236.957 386.645 237.418 386.535 237.84 386.316C238.262 386.09 238.574 385.789 238.777 385.414V383.234H237.512C235.816 383.234 234.914 383.82 234.805 384.992L234.793 385.191C234.793 385.613 234.941 385.961 235.238 386.234C235.535 386.508 235.941 386.645 236.457 386.645ZM247.895 376.32L248 377.785C248.906 376.652 250.121 376.086 251.645 376.086C252.988 376.086 253.988 376.48 254.645 377.27C255.301 378.059 255.637 379.238 255.652 380.809V389H252.266V380.891C252.266 380.172 252.109 379.652 251.797 379.332C251.484 379.004 250.965 378.84 250.238 378.84C249.285 378.84 248.57 379.246 248.094 380.059V389H244.707V376.32H247.895Z" fill="#F3F3F3"/>
<path d="M613.459 336.708H610.41V345H608.359V336.708H605.352V335.047H613.459V336.708ZM612.775 341.233C612.775 340.5 612.917 339.846 613.199 339.271C613.482 338.697 613.887 338.253 614.416 337.938C614.949 337.624 615.567 337.467 616.269 337.467C617.267 337.467 618.08 337.772 618.709 338.383C619.342 338.993 619.696 339.823 619.769 340.871L619.782 341.377C619.782 342.512 619.465 343.423 618.832 344.111C618.199 344.795 617.349 345.137 616.282 345.137C615.216 345.137 614.364 344.795 613.726 344.111C613.092 343.428 612.775 342.498 612.775 341.322V341.233ZM614.751 341.377C614.751 342.079 614.883 342.617 615.147 342.99C615.412 343.359 615.79 343.544 616.282 343.544C616.761 343.544 617.134 343.362 617.403 342.997C617.672 342.628 617.807 342.04 617.807 341.233C617.807 340.545 617.672 340.012 617.403 339.634C617.134 339.256 616.756 339.066 616.269 339.066C615.785 339.066 615.412 339.256 615.147 339.634C614.883 340.007 614.751 340.589 614.751 341.377ZM620.691 341.247C620.691 340.094 620.949 339.176 621.464 338.492C621.983 337.809 622.692 337.467 623.59 337.467C624.31 337.467 624.905 337.736 625.374 338.273V334.5H627.356V345H625.572L625.477 344.214C624.984 344.829 624.351 345.137 623.576 345.137C622.706 345.137 622.006 344.795 621.478 344.111C620.953 343.423 620.691 342.468 620.691 341.247ZM622.667 341.391C622.667 342.083 622.788 342.614 623.029 342.983C623.271 343.353 623.622 343.537 624.082 343.537C624.693 343.537 625.123 343.28 625.374 342.765V339.846C625.128 339.331 624.702 339.073 624.096 339.073C623.143 339.073 622.667 339.846 622.667 341.391ZM633.174 345C633.083 344.822 633.017 344.601 632.976 344.337C632.497 344.87 631.875 345.137 631.109 345.137C630.385 345.137 629.783 344.927 629.305 344.508C628.831 344.089 628.594 343.56 628.594 342.922C628.594 342.138 628.883 341.536 629.462 341.117C630.045 340.698 630.886 340.486 631.984 340.481H632.894V340.058C632.894 339.716 632.805 339.442 632.627 339.237C632.454 339.032 632.178 338.93 631.8 338.93C631.467 338.93 631.205 339.009 631.014 339.169C630.827 339.328 630.733 339.547 630.733 339.825H628.758C628.758 339.397 628.89 339 629.154 338.636C629.419 338.271 629.792 337.986 630.275 337.781C630.758 337.572 631.301 337.467 631.902 337.467C632.814 337.467 633.536 337.697 634.069 338.157C634.607 338.613 634.876 339.256 634.876 340.085V343.291C634.881 343.993 634.979 344.524 635.17 344.884V345H633.174ZM631.54 343.626C631.832 343.626 632.101 343.562 632.347 343.435C632.593 343.302 632.775 343.127 632.894 342.908V341.637H632.155C631.166 341.637 630.64 341.979 630.576 342.662L630.569 342.778C630.569 343.024 630.656 343.227 630.829 343.387C631.002 343.546 631.239 343.626 631.54 343.626ZM639.046 342.204L640.413 337.604H642.532L639.559 346.148L639.395 346.538C638.952 347.504 638.223 347.987 637.207 347.987C636.92 347.987 636.628 347.944 636.332 347.857V346.36L636.633 346.367C637.007 346.367 637.285 346.31 637.467 346.196C637.654 346.082 637.799 345.893 637.904 345.629L638.137 345.021L635.546 337.604H637.672L639.046 342.204ZM651.084 345C650.993 344.822 650.927 344.601 650.886 344.337C650.407 344.87 649.785 345.137 649.02 345.137C648.295 345.137 647.693 344.927 647.215 344.508C646.741 344.089 646.504 343.56 646.504 342.922C646.504 342.138 646.793 341.536 647.372 341.117C647.955 340.698 648.796 340.486 649.895 340.481H650.804V340.058C650.804 339.716 650.715 339.442 650.537 339.237C650.364 339.032 650.088 338.93 649.71 338.93C649.377 338.93 649.115 339.009 648.924 339.169C648.737 339.328 648.644 339.547 648.644 339.825H646.668C646.668 339.397 646.8 339 647.064 338.636C647.329 338.271 647.702 337.986 648.186 337.781C648.669 337.572 649.211 337.467 649.812 337.467C650.724 337.467 651.446 337.697 651.979 338.157C652.517 338.613 652.786 339.256 652.786 340.085V343.291C652.791 343.993 652.889 344.524 653.08 344.884V345H651.084ZM649.45 343.626C649.742 343.626 650.011 343.562 650.257 343.435C650.503 343.302 650.685 343.127 650.804 342.908V341.637H650.065C649.076 341.637 648.55 341.979 648.486 342.662L648.479 342.778C648.479 343.024 648.566 343.227 648.739 343.387C648.912 343.546 649.149 343.626 649.45 343.626ZM656.669 335.785V337.604H657.934V339.053H656.669V342.744C656.669 343.018 656.721 343.214 656.826 343.332C656.931 343.451 657.132 343.51 657.428 343.51C657.646 343.51 657.84 343.494 658.009 343.462V344.959C657.621 345.077 657.223 345.137 656.812 345.137C655.427 345.137 654.721 344.437 654.693 343.038V339.053H653.613V337.604H654.693V335.785H656.669ZM667.237 345H665.262V337.385L662.903 338.116V336.51L667.025 335.033H667.237V345ZM670.655 344.029C670.655 343.715 670.76 343.46 670.97 343.264C671.184 343.068 671.451 342.97 671.77 342.97C672.093 342.97 672.36 343.068 672.569 343.264C672.784 343.46 672.891 343.715 672.891 344.029C672.891 344.339 672.786 344.592 672.576 344.788C672.367 344.979 672.098 345.075 671.77 345.075C671.446 345.075 671.179 344.979 670.97 344.788C670.76 344.592 670.655 344.339 670.655 344.029ZM670.655 338.431C670.655 338.116 670.76 337.861 670.97 337.665C671.184 337.469 671.451 337.371 671.77 337.371C672.093 337.371 672.36 337.469 672.569 337.665C672.784 337.861 672.891 338.116 672.891 338.431C672.891 338.741 672.786 338.993 672.576 339.189C672.367 339.381 672.098 339.477 671.77 339.477C671.446 339.477 671.179 339.381 670.97 339.189C670.76 338.993 670.655 338.741 670.655 338.431ZM681.251 345H674.429V343.646L677.648 340.215C678.09 339.732 678.416 339.31 678.626 338.95C678.84 338.59 678.947 338.248 678.947 337.925C678.947 337.483 678.836 337.136 678.612 336.886C678.389 336.631 678.07 336.503 677.655 336.503C677.209 336.503 676.855 336.658 676.596 336.968C676.34 337.273 676.213 337.676 676.213 338.178H674.23C674.23 337.572 674.374 337.018 674.661 336.517C674.953 336.015 675.363 335.623 675.892 335.341C676.42 335.054 677.02 334.91 677.689 334.91C678.715 334.91 679.51 335.156 680.075 335.648C680.645 336.141 680.93 336.836 680.93 337.733C680.93 338.226 680.802 338.727 680.547 339.237C680.292 339.748 679.854 340.342 679.234 341.021L676.972 343.407H681.251V345ZM687.267 345H685.291V337.385L682.933 338.116V336.51L687.055 335.033H687.267V345ZM696.256 341.493V345H694.205V335.047H698.088C698.835 335.047 699.492 335.184 700.057 335.457C700.626 335.73 701.064 336.12 701.369 336.626C701.674 337.127 701.827 337.699 701.827 338.342C701.827 339.317 701.492 340.087 700.822 340.652C700.157 341.213 699.234 341.493 698.054 341.493H696.256ZM696.256 339.832H698.088C698.63 339.832 699.043 339.704 699.325 339.449C699.612 339.194 699.756 338.829 699.756 338.355C699.756 337.868 699.612 337.474 699.325 337.173C699.038 336.872 698.642 336.717 698.136 336.708H696.256V339.832ZM705.922 335.047L708.479 342.266L711.021 335.047H713.715V345H711.657V342.279L711.862 337.583L709.176 345H707.768L705.088 337.59L705.293 342.279V345H703.242V335.047H705.922Z" fill="#303A49"/>
<rect x="112" y="353" width="628" height="107" rx="10" fill="#515A7A" fill-opacity="0.03"/>
<path d="M145 357C131.2 357 120 368.2 120 382C120 395.8 131.2 407 145 407C158.8 407 170 395.8 170 382C170 368.2 158.8 357 145 357ZM145 364.5C149.15 364.5 152.5 367.85 152.5 372C152.5 376.15 149.15 379.5 145 379.5C140.85 379.5 137.5 376.15 137.5 372C137.5 367.85 140.85 364.5 145 364.5ZM145 400C138.75 400 133.225 396.8 130 391.95C130.075 386.975 140 384.25 145 384.25C149.975 384.25 159.925 386.975 160 391.95C156.775 396.8 151.25 400 145 400Z" fill="#E5E5E5"/>
<path d="M142 217C128.2 217 117 228.2 117 242C117 255.8 128.2 267 142 267C155.8 267 167 255.8 167 242C167 228.2 155.8 217 142 217ZM142 224.5C146.15 224.5 149.5 227.85 149.5 232C149.5 236.15 146.15 239.5 142 239.5C137.85 239.5 134.5 236.15 134.5 232C134.5 227.85 137.85 224.5 142 224.5ZM142 260C135.75 260 130.225 256.8 127 251.95C127.075 246.975 137 244.25 142 244.25C146.975 244.25 156.925 246.975 157 251.95C153.775 256.8 148.25 260 142 260Z" fill="#E5E5E5"/>
<rect x="184" y="407" width="420" height="15" rx="7" fill="#E5E5E5"/>
<rect x="184" y="270" width="420" height="15" rx="7" fill="#E5E5E5"/>
<rect x="183" y="230" width="90" height="27" rx="13.5" fill="#E5E5E5"/>
<rect x="183" y="367" width="90" height="27" rx="13.5" fill="#E5E5E5"/>
<rect x="604" y="193" width="110" height="16" rx="5" fill="#2F3E53"/>
<rect x="605" y="332" width="110" height="16" rx="5" fill="#2F3E53"/>
<rect x="145" y="498" width="267" height="28" rx="10" fill="#C4C4C4"/>
<path d="M30.7021 188H90.7526H170.044C181.09 188 190.044 179.046 190.044 168V20C190.044 8.95431 181.09 0 170.044 0H40C28.9543 0 20 8.9543 20 20V177.298C20 183.209 24.7915 188 30.7021 188Z" fill="#1C232E"/>
<path d="M147.533 69H140.448V56.5C140.448 39.25 124.577 25.25 105.022 25.25C85.4669 25.25 69.5962 39.25 69.5962 56.5V69H62.511C54.7173 69 48.3407 74.625 48.3407 81.5V144C48.3407 150.875 54.7173 156.5 62.511 156.5H147.533C155.327 156.5 161.703 150.875 161.703 144V81.5C161.703 74.625 155.327 69 147.533 69ZM105.022 125.25C97.2283 125.25 90.8517 119.625 90.8517 112.75C90.8517 105.875 97.2283 100.25 105.022 100.25C112.816 100.25 119.192 105.875 119.192 112.75C119.192 119.625 112.816 125.25 105.022 125.25ZM126.986 69H83.058V56.5C83.058 45.8125 92.9064 37.125 105.022 37.125C117.138 37.125 126.986 45.8125 126.986 56.5V69Z" fill="url(#paint0_radial)"/>
<defs>
<radialGradient id="paint0_radial" cx="0" cy="0" r="1" gradientUnits="userSpaceOnUse" gradientTransform="translate(105.022 90.875) rotate(90) scale(65.625 56.6813)">
<stop stop-color="#FF4B6C"/>
<stop offset="1" stop-color="#F36262"/>
</radialGradient>
</defs>
</svg>
